<svg xmlns="http://www.w3.org/2000/svg" width="20.535" height="20.535" viewBox="0 0 20.535 20.535">
  <path id="Icon_awesome-phone-alt" data-name="Icon awesome-phone-alt" d="M16.289,11.848l-3.668-1.572a.786.786,0,0,0-.917.226L10.08,12.487a12.139,12.139,0,0,1-5.8-5.8L6.262,5.06a.784.784,0,0,0,.226-.917L4.916.475a.791.791,0,0,0-.9-.455L.609.806A.786.786,0,0,0,0,1.572a15.194,15.194,0,0,0,15.2,15.2.786.786,0,0,0,.766-.609l.786-3.406A.8.8,0,0,0,16.289,11.848Z" transform="matrix(0.966, 0.259, -0.259, 0.966, 4.34, 0)" fill="#268da0"/>
</svg>
